<svg height="380" viewBox="0 0 400 380" width="400" xmlns="http://www.w3.org/2000/svg"><g fill="#5750ec" fill-rule="evenodd" transform="translate(0 1)"><g stroke="#5750ec"><path d="m200.059534 49.3933566 149.904471.0801588.080159 149.9327386-149.904471-.080159z" stroke-width="8" transform="matrix(.64278761 -.76604444 .76604444 .64278761 2.956149 255.139092)"/><path d="m209.996385 178.413057 14.699288-.007859-.015717 29.393033-14.699288.007859z" transform="matrix(-.76604444 -.64278761 .64278761 -.76604444 259.702952 480.735432)"/><path d="m257.310895 218.071557 14.699288-.007858-.015718 29.393033-14.699288.007859z" transform="matrix(-.76604444 -.64278761 .64278761 -.76604444 317.770486 581.187288)"/><path d="m233.65364 198.242307 14.699288-.007859-.015717 29.393034-14.699289.007858z" transform="matrix(-.76604444 -.64278761 .64278761 -.76604444 288.73672 530.961359)"/><path d="m162.681875 138.754556 14.699288-.007859-.015717 29.393034-14.699288.007858z" transform="matrix(-.76604444 -.64278761 .64278761 -.76604444 201.635419 380.283577)"/><path d="m186.33913 158.583806 14.699288-.007858-.015717 29.393033-14.699288.007859z" transform="matrix(-.76604444 -.64278761 .64278761 -.76604444 230.669185 430.509505)"/><path d="m325.320044 41.124828 14.699288-.0078587-.015717 29.3930335-14.699288.0078587z" transform="matrix(-.76604444 -.64278761 .64278761 -.76604444 551.616834 312.406938)"/><path d="m372.634554 80.7833287 14.699288-.0078587-.015717 29.393033-14.699288.007859z" transform="matrix(-.76604444 -.64278761 .64278761 -.76604444 609.684366 412.858794)"/><path d="m348.977299 60.9540784 14.699288-.0078587-.015717 29.3930334-14.699288.0078587z" transform="matrix(-.76604444 -.64278761 .64278761 -.76604444 580.6506 362.632867)"/><path d="m278.005535 1.46632736 14.699288-.0078587-.015718 29.39303344-14.699288.0078587z" transform="matrix(-.76604444 -.64278761 .64278761 -.76604444 493.549298 211.955084)"/><path d="m301.662789 21.2955777 14.699289-.0078587-.015718 29.3930334-14.699288.0078587z" transform="matrix(-.76604444 -.64278761 .64278761 -.76604444 522.583066 262.181011)"/><path d="m306.229864 210.152454 14.696516.007859.029078 54.387366-14.696517-.007859z" transform="matrix(.64278761 -.76604444 .76604444 .64278761 -69.801515 325.0103)"/><path d="m376.064163 120.094403 14.696517.007858.015717 29.398576-14.696516-.007858z" transform="matrix(.64278761 -.76604444 .76604444 .64278761 33.701507 341.868355)"/><path d="m336.362576 167.357563 14.696516.007859.015718 29.398576-14.696517-.007859z" transform="matrix(.64278761 -.76604444 .76604444 .64278761 -16.686074 328.338162)"/><path d="m356.213369 143.725983 14.696517.007859.015718 29.398576-14.696517-.007859z" transform="matrix(.64278761 -.76604444 .76604444 .64278761 8.507717 335.103258)"/><path d="m316.511782 190.989143 14.696517.007859.015717 29.398576-14.696517-.007858z" transform="matrix(.64278761 -.76604444 .76604444 .64278761 -41.879864 321.573064)"/><path d="m159.223603 99.4222219 14.696516.0078587.015718 29.3985764-14.696517-.007859z" transform="matrix(.64278761 -.76604444 .76604444 .64278761 -27.920818 168.37449)"/><path d="m238.626778 4.89590058 14.696517.00785871.015717 29.39857621-14.696517-.0078587z" transform="matrix(.64278761 -.76604444 .76604444 .64278761 72.854342 195.434878)"/><path d="m198.92519 52.1590612 14.696517.0078587.015717 29.3985763-14.696516-.0078587z" transform="matrix(.64278761 -.76604444 .76604444 .64278761 22.466761 181.904683)"/><path d="m218.775984 28.5274809 14.696517.0078587.015717 29.3985762-14.696517-.0078587z" transform="matrix(.64278761 -.76604444 .76604444 .64278761 47.660552 188.66978)"/><path d="m165.546535 46.8204956 14.696516.0078587.034579 64.6768677-14.696517-.007859z" transform="matrix(.64278761 -.76604444 .76604444 .64278761 1.12407 160.736294)"/></g><path d="m238.5 326c-14.635546 0-26.5 11.864454-26.5 26.5s11.864454 26.5 26.5 26.5 26.5-11.864454 26.5-26.5-11.864454-26.5-26.5-26.5zm0 11.777778c8.130859 0 14.722222 6.591363 14.722222 14.722222s-6.591363 14.722222-14.722222 14.722222-14.722222-6.591363-14.722222-14.722222 6.591363-14.722222 14.722222-14.722222z" fill-rule="nonzero"/><path d="m127.5 188c-14.635546 0-26.5 11.864454-26.5 26.5s11.864454 26.5 26.5 26.5 26.5-11.864454 26.5-26.5-11.864454-26.5-26.5-26.5zm0 11.777778c8.130859 0 14.722222 6.591363 14.722222 14.722222s-6.591363 14.722222-14.722222 14.722222-14.722222-6.591363-14.722222-14.722222 6.591363-14.722222 14.722222-14.722222z" fill-rule="nonzero"/><path d="m26.5 102c-14.6355459 0-26.5 11.864454-26.5 26.5s11.8644541 26.5 26.5 26.5 26.5-11.864454 26.5-26.5-11.8644541-26.5-26.5-26.5zm0 11.777778c8.1308588 0 14.7222222 6.591363 14.7222222 14.722222s-6.5913634 14.722222-14.7222222 14.722222-14.7222222-6.591363-14.7222222-14.722222 6.5913634-14.722222 14.7222222-14.722222z" fill-rule="nonzero"/><g stroke="#5750ec"><ellipse cx="25.5" cy="129.5" rx="17.5" ry="20.5"/><ellipse cx="126.5" cy="214.5" rx="17.5" ry="20.5"/><ellipse cx="238.5" cy="347.5" rx="17.5" ry="20.5"/><path d="m320.592459 247.857406 14.705573-.002199-.008138 54.353857-14.705573.002199z" transform="matrix(-.99026807 -.1391731 .1391731 -.99026807 614.413623 593.030456)"/><path d="m162.376539 215.615042 14.696516.007858.04008 74.96637-14.696517-.007859z" transform="matrix(-.64278761 .76604444 -.76604444 -.64278761 472.742215 285.760997)"/><path d="m205.178496 271.521305 14.702365.006616.030432 67.589824-14.702365-.006615z" transform="matrix(-.88294759 .46947156 -.46947156 -.88294759 543.549733 475.116881)"/><path d="m94.827879 23.5096764 14.692162-.0055434-.043238 114.688413-14.692162.005543z" transform="matrix(.37460659 .92718385 -.92718385 .37460659 138.849245 -44.15025)"/><path d="m38.2436288 98.0193498 14.6987365-.0079362-.0095235 17.6364824-14.6987365.007936z" transform="matrix(-.74314483 -.66913061 .66913061 -.74314483 7.981249 216.73096)"/><path d="m68.1042024 109.626335 14.6903131.002466.0106035 63.233615-14.6903131-.002466z" transform="matrix(.15643447 -.98768834 .98768834 .15643447 -75.854472 193.674577)"/><path d="m103.267054 139.325803 14.704358.00469.018762 58.765786-14.704358-.00469z" transform="matrix(.95105652 -.30901699 .30901699 .95105652 -46.720029 42.443428)"/><path d="m301.488133 294.071878 14.701892-.006911-.031099 66.122606-14.701892.006911z" transform="matrix(-.8660254 -.5 .5 -.8660254 412.707688 764.844142)"/><path d="m270 331h15v43h-15z" transform="matrix(0 -1 1 0 -75 630)"/></g></g></svg>